HIERARCHY
ROOT Hips
{
	OFFSET -0.000008 104.274872 1.554316
	CHANNELS 6 Xposition Yposition Zposition Xrotation Yrotation Zrotation
	JOINT Spine
	{
		OFFSET -0.000005 10.181595 0.131521
		CHANNELS 3 Xrotation Yrotation Zrotation
		JOINT Spine1
		{
			OFFSET -0.000000 9.893959 -1.470711
			CHANNELS 3 Xrotation Yrotation Zrotation
			JOINT Spine2
			{
				OFFSET -0.000000 9.220757 -1.370642
				CHANNELS 3 Xrotation Yrotation Zrotation
				JOINT Neck
				{
					OFFSET 0.000001 16.740417 -2.049038
					CHANNELS 3 Xrotation Yrotation Zrotation
					JOINT Head
					{
						OFFSET 0.000000 9.617874 1.685009
						CHANNELS 3 Xrotation Yrotation Zrotation
						JOINT HeadTop_End
						{
							OFFSET 0.000002 22.037384 7.501098
							CHANNELS 3 Xrotation Yrotation Zrotation
							End Site
							{
								OFFSET 0.000002 23.106583 -2.828261
							}
						}
					}
				}
				JOINT RightShoulder
				{
					OFFSET -4.569969 11.014923 -2.160886
					CHANNELS 3 Xrotation Yrotation Zrotation
					JOINT RightArm
					{
						OFFSET -10.592850 -0.524811 -2.232100
						CHANNELS 3 Xrotation Yrotation Zrotation
						JOINT RightForeArm
						{
							OFFSET -27.841520 0.000015 -0.000005
							CHANNELS 3 Xrotation Yrotation Zrotation
							JOINT RightHand
							{
								OFFSET -28.328838 -0.000015 0.000018
								CHANNELS 3 Xrotation Yrotation Zrotation
								JOINT RightHandThumb1
								{
									OFFSET -2.464806 -1.573990 2.681853
									CHANNELS 3 Xrotation Yrotation Zrotation
									JOINT RightHandThumb2
									{
										OFFSET -3.215195 -1.872772 1.924282
										CHANNELS 3 Xrotation Yrotation Zrotation
										JOINT RightHandThumb3
										{
											OFFSET -2.654823 -1.527985 1.512609
											CHANNELS 3 Xrotation Yrotation Zrotation
											JOINT RightHandThumb4
											{
												OFFSET -2.018822 -1.152008 1.108055
												CHANNELS 3 Xrotation Yrotation Zrotation
												End Site
												{
													OFFSET -1.888100 -1.145340 1.324313
												}
											}
										}
									}
								}
								JOINT RightHandIndex1
								{
									OFFSET -9.108284 -0.517868 2.259835
									CHANNELS 3 Xrotation Yrotation Zrotation
									JOINT RightHandIndex2
									{
										OFFSET -3.699997 0.000000 0.001215
										CHANNELS 3 Xrotation Yrotation Zrotation
										JOINT RightHandIndex3
										{
											OFFSET -2.850014 0.000031 -0.000522
											CHANNELS 3 Xrotation Yrotation Zrotation
											JOINT RightHandIndex4
											{
												OFFSET -2.772179 -0.000015 -0.000019
												CHANNELS 3 Xrotation Yrotation Zrotation
												End Site
												{
													OFFSET -2.772186 0.000000 -0.000502
												}
											}
										}
									}
								}
								JOINT RightHandMiddle1
								{
									OFFSET -9.532509 -0.000046 -0.000025
									CHANNELS 3 Xrotation Yrotation Zrotation
									JOINT RightHandMiddle2
									{
										OFFSET -3.700012 0.000000 0.003713
										CHANNELS 3 Xrotation Yrotation Zrotation
										JOINT RightHandMiddle3
										{
											OFFSET -2.949989 0.000015 -0.002054
											CHANNELS 3 Xrotation Yrotation Zrotation
											JOINT RightHandMiddle4
											{
												OFFSET -2.946625 0.000000 -0.000154
												CHANNELS 3 Xrotation Yrotation Zrotation
												End Site
												{
													OFFSET -2.946632 0.000015 -0.001136
												}
											}
										}
									}
								}
								JOINT RightHandRing1
								{
									OFFSET -9.103600 -0.043076 -1.865135
									CHANNELS 3 Xrotation Yrotation Zrotation
									JOINT RightHandRing2
									{
										OFFSET -3.379272 0.000000 -0.001054
										CHANNELS 3 Xrotation Yrotation Zrotation
										JOINT RightHandRing3
										{
											OFFSET -2.889694 0.000015 0.000379
											CHANNELS 3 Xrotation Yrotation Zrotation
											JOINT RightHandRing4
											{
												OFFSET -2.638809 0.000000 0.000941
												CHANNELS 3 Xrotation Yrotation Zrotation
												End Site
												{
													OFFSET -2.638802 0.000000 0.005160
												}
											}
										}
									}
								}
								JOINT RightHandPinky1
								{
									OFFSET -8.076675 -0.486710 -3.806280
									CHANNELS 3 Xrotation Yrotation Zrotation
									JOINT RightHandPinky2
									{
										OFFSET -3.600006 -0.000031 -0.003747
										CHANNELS 3 Xrotation Yrotation Zrotation
										JOINT RightHandPinky3
										{
											OFFSET -2.099976 -0.000015 -0.005740
											CHANNELS 3 Xrotation Yrotation Zrotation
											JOINT RightHandPinky4
											{
												OFFSET -2.115776 -0.000031 -0.003680
												CHANNELS 3 Xrotation Yrotation Zrotation
												End Site
												{
													OFFSET -2.115776 -0.000015 -0.003507
												}
											}
										}
									}
								}
							}
						}
					}
				}
				JOINT LeftShoulder
				{
					OFFSET 4.570447 11.014725 -2.160858
					CHANNELS 3 Xrotation Yrotation Zrotation
					JOINT LeftArm
					{
						OFFSET 10.592371 -0.524597 -2.232121
						CHANNELS 3 Xrotation Yrotation Zrotation
						JOINT LeftForeArm
						{
							OFFSET 27.841520 -0.000015 0.000023
							CHANNELS 3 Xrotation Yrotation Zrotation
							JOINT LeftHand
							{
								OFFSET 28.328835 -0.000046 0.000017
								CHANNELS 3 Xrotation Yrotation Zrotation
								JOINT LeftHandThumb1
								{
									OFFSET 2.466141 -1.576187 2.681734
									CHANNELS 3 Xrotation Yrotation Zrotation
									JOINT LeftHandThumb2
									{
										OFFSET 3.217804 -1.872055 1.916487
										CHANNELS 3 Xrotation Yrotation Zrotation
										JOINT LeftHandThumb3
										{
											OFFSET 2.656021 -1.528809 1.514508
											CHANNELS 3 Xrotation Yrotation Zrotation
											JOINT LeftHandThumb4
											{
												OFFSET 2.020889 -1.154068 1.115132
												CHANNELS 3 Xrotation Yrotation Zrotation
												End Site
												{
													OFFSET 1.908852 -1.150833 1.300490
												}
											}
										}
									}
								}
								JOINT LeftHandIndex1
								{
									OFFSET 9.109306 -0.518036 2.259871
									CHANNELS 3 Xrotation Yrotation Zrotation
									JOINT LeftHandIndex2
									{
										OFFSET 3.699997 -0.000015 -0.000323
										CHANNELS 3 Xrotation Yrotation Zrotation
										JOINT LeftHandIndex3
										{
											OFFSET 2.850006 -0.000015 0.000350
											CHANNELS 3 Xrotation Yrotation Zrotation
											JOINT LeftHandIndex4
											{
												OFFSET 2.774857 -0.000015 -0.000027
												CHANNELS 3 Xrotation Yrotation Zrotation
												End Site
												{
													OFFSET 2.774864 0.000000 -0.000099
												}
											}
										}
									}
								}
								JOINT LeftHandMiddle1
								{
									OFFSET 9.533401 0.000031 0.000044
									CHANNELS 3 Xrotation Yrotation Zrotation
									JOINT LeftHandMiddle2
									{
										OFFSET 3.699997 0.000000 -0.000231
										CHANNELS 3 Xrotation Yrotation Zrotation
										JOINT LeftHandMiddle3
										{
											OFFSET 2.949997 -0.000015 -0.000059
											CHANNELS 3 Xrotation Yrotation Zrotation
											JOINT LeftHandMiddle4
											{
												OFFSET 2.952866 0.000000 0.000062
												CHANNELS 3 Xrotation Yrotation Zrotation
												End Site
												{
													OFFSET 2.952858 0.000000 0.000228
												}
											}
										}
									}
								}
								JOINT LeftHandRing1
								{
									OFFSET 9.104530 -0.043030 -1.865075
									CHANNELS 3 Xrotation Yrotation Zrotation
									JOINT LeftHandRing2
									{
										OFFSET 3.150009 0.000000 0.000042
										CHANNELS 3 Xrotation Yrotation Zrotation
										JOINT LeftHandRing3
										{
											OFFSET 2.949989 -0.000015 0.000040
											CHANNELS 3 Xrotation Yrotation Zrotation
											JOINT LeftHandRing4
											{
												OFFSET 2.644318 -0.000015 0.000056
												CHANNELS 3 Xrotation Yrotation Zrotation
												End Site
												{
													OFFSET 2.644318 0.000000 0.000120
												}
											}
										}
									}
								}
								JOINT LeftHandPinky1
								{
									OFFSET 8.077782 -0.486877 -3.806258
									CHANNELS 3 Xrotation Yrotation Zrotation
									JOINT LeftHandPinky2
									{
										OFFSET 3.599960 0.000031 0.014726
										CHANNELS 3 Xrotation Yrotation Zrotation
										JOINT LeftHandPinky3
										{
											OFFSET 2.099998 0.000031 0.007705
											CHANNELS 3 Xrotation Yrotation Zrotation
											JOINT LeftHandPinky4
											{
												OFFSET 2.125504 0.000000 0.007515
												CHANNELS 3 Xrotation Yrotation Zrotation
												End Site
												{
													OFFSET 2.125511 0.000015 0.006257
												}
											}
										}
									}
								}
							}
						}
					}
				}
			}
		}
	}
	JOINT RightUpLeg
	{
		OFFSET -8.207787 -6.751663 -1.599560
		CHANNELS 3 Xrotation Yrotation Zrotation
		JOINT RightLeg
		{
			OFFSET -0.000001 -44.370129 0.345939
			CHANNELS 3 Xrotation Yrotation Zrotation
			JOINT RightFoot
			{
				OFFSET 0.000001 -44.423679 -3.043537
				CHANNELS 3 Xrotation Yrotation Zrotation
				JOINT RightToeBase
				{
					OFFSET -0.000003 -8.728673 10.710563
					CHANNELS 3 Xrotation Yrotation Zrotation
					JOINT RightToe_End
					{
						OFFSET -0.000002 -0.000676 9.278122
						CHANNELS 3 Xrotation Yrotation Zrotation
						End Site
						{
							OFFSET -0.000003 -0.000676 9.278122
						}
					}
				}
			}
		}
	}
	JOINT LeftUpLeg
	{
		OFFSET 8.207791 -6.751694 -1.599555
		CHANNELS 3 Xrotation Yrotation Zrotation
		JOINT LeftLeg
		{
			OFFSET -0.000002 -44.370033 0.346957
			CHANNELS 3 Xrotation Yrotation Zrotation
			JOINT LeftFoot
			{
				OFFSET 0.000000 -44.423672 -3.044393
				CHANNELS 3 Xrotation Yrotation Zrotation
				JOINT LeftToeBase
				{
					OFFSET -0.000003 -8.728668 10.710562
					CHANNELS 3 Xrotation Yrotation Zrotation
					JOINT LeftToe_End
					{
						OFFSET -0.000003 -0.000676 9.278135
						CHANNELS 3 Xrotation Yrotation Zrotation
						End Site
						{
							OFFSET -0.000003 -0.000677 9.278135
						}
					}
				}
			}
		}
	}
}
MOTION
Frames: 5
Frame Time: 0.033333
0.000000 96.000015 0.000007 -0.000000 -12.600005 -0.000001 0.039955 -5.538948 0.825953 0.039955 -5.538950 0.825954 0.018606 -4.168833 0.511177 0.051885 6.947893 -0.854651 0.074916 8.337330 -1.027814 0.000000 0.000000 0.000000 3.731769 39.472391 -15.393354 7.036392 -37.803246 70.352697 -76.459193 146.888669 29.744350 -12.250095 9.161824 37.046922 0.000000 -0.000004 -0.000000 0.000001 -0.000000 -0.000000 -0.000001 -0.000001 0.000001 -0.000002 -0.000001 -0.000002 -0.000000 0.000000 -0.000001 -0.000000 -0.000000 -0.000000 -0.000000 0.000000 0.000001 0.000000 0.000000 -0.000002 -0.000000 0.000000 -0.000001 0.000000 0.000000 0.000000 -0.000000 -0.000000 -0.000001 -0.000000 0.000000 0.000002 0.000000 0.000000 -0.000001 -0.000000 -0.000000 -0.000002 0.000000 0.000000 -0.000003 -0.000000 -0.000000 0.000001 0.000000 -0.000000 0.000000 0.000000 -0.000000 -0.000002 -0.000000 -0.000000 -0.000001 -0.000000 0.000000 0.000002 2.138719 16.009772 8.465313 72.442960 -55.993741 0.159406 1.860958 -45.989559 113.219265 10.340949 13.184376 -19.369732 -0.000000 -0.000001 0.000004 -0.000000 -0.000000 -0.000000 -0.000000 0.000002 0.000003 -0.000001 -0.000002 -0.000004 0.000000 0.000000 0.000001 -0.000000 -0.000000 0.000000 0.000000 -0.000000 0.000000 -0.000000 -0.000000 -0.000001 0.000000 -0.000000 -0.000001 -0.000000 0.000000 0.000000 0.000000 -0.000000 0.000001 -0.000000 -0.000000 -0.000000 -0.000000 -0.000000 -0.000001 0.000000 0.000000 -0.000001 -0.000000 -0.000000 0.000001 0.000000 -0.000000 0.000000 0.000000 0.000000 -0.000001 -0.000000 -0.000000 0.000002 0.000000 0.000000 0.000001 -0.000000 -0.000000 -0.000001 16.623579 -171.267526 14.776336 18.544896 -0.303318 -9.762922 114.818212 -1.707095 0.854914 63.402201 0.000002 0.000023 -0.000000 0.000000 -0.000000 -17.498325 -171.496720 -14.907412 -28.098679 -1.783562 9.604919 134.708064 1.580388 -1.071215 55.873693 0.000001 0.000011 -0.000000 0.000000 -0.000000 
0.000000 95.993446 -0.007219 -0.002218 -12.582190 -0.000614 0.037692 -5.531110 0.824884 0.037691 -5.531109 0.824884 0.015683 -4.162930 0.510557 0.054599 6.938095 -0.853256 0.076845 8.325573 -1.026183 0.000000 -0.000000 -0.000000 3.736560 39.432752 -15.387682 7.092878 -37.960194 70.256453 -76.341653 146.657576 29.235703 -12.272694 9.120130 37.379638 0.000001 -0.000004 -0.000003 -0.000001 0.000001 0.000001 0.000001 -0.000001 0.000001 0.000002 0.000000 -0.000001 -0.000000 0.000000 -0.000002 -0.000000 0.000000 -0.000001 -0.000000 -0.000000 -0.000001 0.000000 0.000000 -0.000001 -0.000000 0.000000 -0.000002 -0.000000 0.000000 0.000003 -0.000000 -0.000000 -0.000002 -0.000000 -0.000000 0.000001 -0.000000 0.000000 -0.000001 -0.000000 -0.000000 -0.000003 0.000000 0.000000 0.000000 0.000000 -0.000000 0.000002 -0.000000 0.000000 -0.000002 -0.000000 0.000000 0.000001 -0.000000 0.000000 0.000000 0.000000 -0.000000 -0.000000 2.146160 15.969754 8.468589 72.442960 -55.993744 0.159407 1.860958 -45.989562 113.219258 10.340950 13.184376 -19.369740 -0.000000 -0.000001 0.000006 0.000001 0.000003 -0.000000 -0.000001 0.000001 -0.000000 -0.000002 -0.000002 -0.000006 0.000000 -0.000000 0.000001 0.000000 0.000000 0.000000 -0.000000 0.000000 0.000000 -0.000000 0.000000 -0.000000 -0.000000 -0.000000 -0.000001 0.000000 -0.000000 0.000000 -0.000000 -0.000000 0.000001 -0.000000 -0.000000 0.000001 0.000000 0.000000 -0.000001 -0.000000 0.000000 -0.000001 -0.000000 0.000000 0.000001 -0.000000 -0.000000 0.000001 0.000000 -0.000000 -0.000001 0.000000 -0.000000 0.000000 0.000000 0.000000 -0.000003 -0.000000 -0.000000 0.000000 16.624942 -171.284561 14.771051 18.544896 -0.303318 -9.762921 114.818212 -1.707095 0.854915 63.402201 0.000002 0.000023 -0.000000 0.000000 -0.000000 -17.495340 -171.513741 -14.902120 -28.098683 -1.783562 9.604916 134.708064 1.580388 -1.071215 55.873690 0.000001 0.000011 -0.000000 0.000000 -0.000000 
-0.000000 95.975052 -0.028886 -0.008866 -12.528753 -0.002374 0.030899 -5.507596 0.821625 0.030897 -5.507597 0.821625 0.006908 -4.145235 0.508647 0.062753 6.908704 -0.849158 0.082642 8.290286 -1.021368 0.000000 -0.000001 0.000000 3.751189 39.313927 -15.370902 7.255186 -38.407021 69.984420 -76.008223 146.034103 27.843642 -12.367354 9.015658 38.291714 0.000001 -0.000002 0.000001 0.000000 -0.000000 0.000001 -0.000001 0.000001 0.000003 -0.000000 0.000002 -0.000004 -0.000000 -0.000000 0.000001 0.000000 -0.000000 -0.000000 -0.000000 0.000000 -0.000002 -0.000000 -0.000000 -0.000001 -0.000000 -0.000000 0.000001 -0.000000 0.000000 0.000002 0.000000 0.000000 -0.000002 -0.000000 0.000000 -0.000001 -0.000000 -0.000000 0.000001 -0.000000 -0.000000 -0.000000 -0.000000 0.000000 -0.000001 0.000000 0.000000 -0.000000 -0.000000 -0.000000 0.000002 -0.000000 -0.000000 -0.000004 0.000000 -0.000000 -0.000002 -0.000000 0.000000 0.000000 2.168629 15.849944 8.478284 72.442960 -55.993737 0.159404 1.860960 -45.989559 113.219258 10.340950 13.184375 -19.369732 -0.000001 -0.000001 0.000003 -0.000000 0.000003 -0.000000 0.000000 0.000002 -0.000001 0.000000 0.000001 -0.000004 0.000000 0.000000 -0.000001 -0.000000 0.000000 0.000000 -0.000000 -0.000000 -0.000001 0.000000 0.000000 0.000001 0.000000 -0.000000 -0.000001 -0.000000 -0.000000 0.000000 -0.000000 -0.000000 0.000001 -0.000000 0.000000 0.000000 0.000000 0.000000 -0.000001 0.000000 -0.000000 -0.000001 0.000000 -0.000000 0.000003 -0.000000 0.000000 -0.000000 0.000000 0.000000 -0.000001 0.000000 -0.000000 0.000002 0.000000 0.000000 -0.000003 -0.000000 -0.000000 0.000001 16.629050 -171.335678 14.755276 18.544894 -0.303318 -9.762921 114.818212 -1.707095 0.854915 63.402194 0.000002 0.000023 0.000000 0.000000 -0.000000 -17.486418 -171.564790 -14.886180 -28.098681 -1.783562 9.604917 134.708064 1.580388 -1.071215 55.873690 0.000001 0.000011 -0.000000 -0.000000 -0.000000 
-0.000000 95.946808 -0.064976 -0.019936 -12.439683 -0.005160 0.019570 -5.468420 0.816102 0.019570 -5.468421 0.816102 -0.007721 -4.115745 0.505371 0.076364 6.859692 -0.842481 0.092327 8.231449 -1.013481 0.000000 0.000001 -0.000000 3.776068 39.116104 -15.343427 7.511535 -39.108246 69.561461 -75.477852 145.126452 25.761404 -12.573405 8.877113 39.652632 -0.000001 -0.000001 -0.000000 0.000001 0.000001 0.000005 -0.000001 0.000003 0.000004 0.000002 -0.000005 -0.000004 0.000000 0.000000 0.000000 -0.000000 0.000000 -0.000001 -0.000000 0.000000 0.000002 0.000000 0.000000 -0.000002 -0.000000 0.000000 0.000000 0.000000 -0.000000 0.000001 -0.000000 0.000000 -0.000002 -0.000000 0.000000 -0.000003 -0.000000 0.000000 0.000000 0.000000 0.000000 -0.000003 -0.000000 0.000000 0.000000 -0.000000 0.000000 0.000000 0.000000 0.000000 0.000001 0.000000 -0.000000 -0.000001 -0.000000 -0.000000 -0.000003 0.000000 -0.000000 0.000001 2.206349 15.650726 8.494261 72.442960 -55.993730 0.159409 1.860962 -45.989566 113.219272 10.340948 13.184375 -19.369735 -0.000000 -0.000001 0.000004 0.000001 0.000005 -0.000003 0.000000 0.000004 -0.000001 0.000003 0.000003 -0.000000 0.000000 -0.000000 -0.000001 -0.000000 0.000000 0.000000 -0.000000 0.000000 0.000000 0.000000 0.000000 0.000001 0.000000 -0.000000 0.000001 0.000000 -0.000000 -0.000001 0.000000 0.000000 0.000001 -0.000000 0.000000 0.000001 0.000000 0.000000 0.000001 0.000000 -0.000000 -0.000001 0.000000 -0.000000 0.000001 0.000000 -0.000000 0.000002 0.000000 -0.000000 0.000000 -0.000000 0.000000 0.000002 -0.000000 0.000000 -0.000003 0.000000 0.000000 -0.000002 16.635943 -171.420905 14.729110 18.544889 -0.303318 -9.762921 114.818212 -1.707095 0.854914 63.402194 0.000002 0.000023 0.000000 0.000000 -0.000000 -17.471585 -171.649853 -14.859512 -28.098681 -1.783561 9.604918 134.708064 1.580388 -1.071215 55.873690 0.000001 0.000011 -0.000000 0.000000 -0.000000 
-0.000000 95.910736 -0.115472 -0.035415 -12.314978 -0.008840 0.003703 -5.413578 0.808242 0.003706 -5.413575 0.808242 -0.028211 -4.074464 0.500658 0.095451 6.791032 -0.833343 0.105919 8.149033 -1.002630 0.000000 -0.000001 0.000000 3.811615 38.839457 -15.305588 7.849389 -40.028733 69.012566 -74.770320 144.044960 23.183180 -12.930389 8.729328 41.333597 0.000001 -0.000002 -0.000003 -0.000001 -0.000000 0.000001 0.000001 -0.000004 0.000002 0.000001 -0.000002 -0.000004 0.000000 0.000000 -0.000003 -0.000000 0.000000 -0.000000 -0.000000 -0.000000 -0.000000 -0.000000 -0.000000 -0.000001 -0.000000 0.000000 -0.000002 0.000000 -0.000000 -0.000001 -0.000000 0.000000 -0.000001 -0.000000 -0.000000 -0.000001 0.000000 0.000000 -0.000002 -0.000000 -0.000000 0.000002 0.000000 0.000000 -0.000000 -0.000000 0.000000 0.000002 -0.000000 -0.000000 -0.000001 0.000000 0.000000 0.000002 -0.000000 -0.000000 -0.000001 -0.000000 -0.000000 0.000001 2.259548 15.372481 8.516441 72.442953 -55.993734 0.159406 1.860966 -45.989566 113.219265 10.340950 13.184374 -19.369740 -0.000000 -0.000001 0.000004 -0.000001 -0.000000 -0.000001 0.000000 0.000002 0.000001 -0.000001 -0.000002 -0.000002 0.000000 0.000000 -0.000001 -0.000000 -0.000000 0.000000 0.000000 0.000000 0.000000 0.000000 -0.000000 0.000000 0.000000 -0.000000 -0.000001 -0.000000 0.000000 0.000002 0.000000 -0.000000 0.000001 -0.000000 0.000000 0.000001 0.000000 0.000000 -0.000001 0.000000 0.000000 -0.000001 0.000000 -0.000000 0.000001 0.000000 0.000000 -0.000000 0.000000 0.000000 -0.000002 0.000000 0.000000 -0.000000 0.000000 0.000000 -0.000001 -0.000000 -0.000000 -0.000001 16.645671 -171.540283 14.692647 18.544893 -0.303318 -9.762922 114.818198 -1.707095 0.854915 63.402194 0.000002 0.000023 0.000000 0.000000 -0.000000 -17.450918 -171.768889 -14.822038 -28.098678 -1.783561 9.604916 134.708064 1.580388 -1.071215 55.873690 0.000001 0.000011 -0.000000 0.000000 -0.000000 
